<?xml version="1.0" encoding="UTF-8"?>
<svg xmlns="http://www.w3.org/2000/svg" xmlns:xlink="http://www.w3.org/1999/xlink" width="18px" height="px" viewBox="0 0 18 18" version="1.1">
<g id="surface1">
<path style=" stroke:none;fill-rule:nonzero;fill:rgb(0%,0%,0%);fill-opacity:1;" d="M 10.21875 4.074219 L 6.519531 6.636719 C 5.5 7.347656 5.246094 8.75 5.953125 9.769531 L 9.800781 15.316406 C 10.675781 16.574219 12.078125 17.25 13.503906 17.25 C 15.953125 17.25 18 15.269531 18 12.746094 C 18 11.859375 17.738281 10.964844 17.195312 10.183594 L 13.347656 4.636719 C 12.640625 3.617188 11.238281 3.363281 10.21875 4.074219 Z M 10.859375 4.996094 C 11.367188 4.644531 12.070312 4.769531 12.425781 5.28125 L 13.386719 6.667969 L 11.074219 8.269531 L 9.472656 5.957031 Z M 7.160156 7.5625 L 8.546875 6.601562 L 10.152344 8.910156 L 7.839844 10.515625 L 6.878906 9.128906 C 6.523438 8.617188 6.652344 7.917969 7.160156 7.5625 Z M 15.425781 15.523438 C 13.894531 16.582031 11.789062 16.203125 10.726562 14.671875 L 8.484375 11.4375 L 14.027344 7.589844 L 16.273438 10.824219 C 17.332031 12.355469 16.953125 14.460938 15.425781 15.523438 Z M 4.207031 7 C 4.472656 5.699219 3.867188 4.792969 3.433594 3.824219 C 2.664062 2.113281 4.605469 1.046875 5.710938 2.59375 L 7.261719 4.753906 L 8.15625 4.125 L 6.601562 1.957031 C 6 1.117188 5.179688 0.75 4.394531 0.75 C 2.808594 0.75 1.703125 2.398438 2.398438 4.171875 C 2.753906 5.085938 3.359375 5.6875 3.136719 6.777344 C 2.949219 7.683594 1.785156 8.335938 0.609375 7.546875 L 0 8.453125 C 1.847656 9.695312 3.875 8.632812 4.207031 7 Z M 4.207031 7 "/>
</g>
</svg>
