<?xml version="1.0" encoding="UTF-8"?>
<svg xmlns="http://www.w3.org/2000/svg" xmlns:xlink="http://www.w3.org/1999/xlink" width="18px" height="px" viewBox="0 0 18 18" version="1.1">
<g id="surface1">
<path style=" stroke:none;fill-rule:nonzero;fill:rgb(0%,0%,0%);fill-opacity:1;" d="M 14.25 1.5 C 14.25 0.671875 13.578125 0 12.75 0 L 5.25 0 C 4.421875 0 3.75 0.671875 3.75 1.5 L 3.75 16.5 C 3.75 17.328125 4.421875 18 5.25 18 L 12.75 18 C 13.578125 18 14.25 17.328125 14.25 16.5 Z M 7.875 1.5 L 10.125 1.5 C 10.332031 1.5 10.5 1.667969 10.5 1.875 C 10.5 2.082031 10.332031 2.25 10.125 2.25 L 7.875 2.25 C 7.667969 2.25 7.5 2.082031 7.5 1.875 C 7.5 1.667969 7.667969 1.5 7.875 1.5 Z M 9 16.5 C 8.585938 16.5 8.25 16.164062 8.25 15.75 C 8.25 15.335938 8.585938 15 9 15 C 9.414062 15 9.75 15.335938 9.75 15.75 C 9.75 16.164062 9.414062 16.5 9 16.5 Z M 12.75 14.25 L 5.25 14.25 L 5.25 3.730469 L 12.75 3.730469 Z M 12.75 14.25 "/>
</g>
</svg>
