<?xml version="1.0" encoding="UTF-8"?>
<svg xmlns="http://www.w3.org/2000/svg" xmlns:xlink="http://www.w3.org/1999/xlink" width="18px" height="px" viewBox="0 0 18 18" version="1.1">
<g id="surface1">
<path style=" stroke:none;fill-rule:nonzero;fill:rgb(0%,0%,0%);fill-opacity:1;" d="M 13.214844 2.25 C 11.78125 2.25 11.296875 3.285156 9 3.285156 C 6.742188 3.285156 6.191406 2.25 4.78125 2.25 C 0.875 2.25 0 10.03125 0 13.011719 C 0 14.621094 0.613281 15.75 1.851562 15.75 C 4.445312 15.75 4.046875 12 7.039062 12 L 10.960938 12 C 13.953125 12 13.554688 15.75 16.148438 15.75 C 17.386719 15.75 18 14.621094 18 13.011719 C 18 10.03125 17.125 2.25 13.214844 2.25 Z M 5.25 9.75 C 4.007812 9.75 3 8.742188 3 7.5 C 3 6.257812 4.007812 5.25 5.25 5.25 C 6.492188 5.25 7.5 6.257812 7.5 7.5 C 7.5 8.742188 6.492188 9.75 5.25 9.75 Z M 12.75 5.25 C 13.164062 5.25 13.5 5.585938 13.5 6 C 13.5 6.414062 13.164062 6.75 12.75 6.75 C 12.335938 6.75 12 6.414062 12 6 C 12 5.585938 12.335938 5.25 12.75 5.25 Z M 11.25 8.25 C 10.835938 8.25 10.5 7.914062 10.5 7.5 C 10.5 7.085938 10.835938 6.75 11.25 6.75 C 11.664062 6.75 12 7.085938 12 7.5 C 12 7.914062 11.664062 8.25 11.25 8.25 Z M 12.75 9.75 C 12.335938 9.75 12 9.414062 12 9 C 12 8.585938 12.335938 8.25 12.75 8.25 C 13.164062 8.25 13.5 8.585938 13.5 9 C 13.5 9.414062 13.164062 9.75 12.75 9.75 Z M 14.25 8.25 C 13.835938 8.25 13.5 7.914062 13.5 7.5 C 13.5 7.085938 13.835938 6.75 14.25 6.75 C 14.664062 6.75 15 7.085938 15 7.5 C 15 7.914062 14.664062 8.25 14.25 8.25 Z M 6.5625 7.5 C 6.5625 8.222656 5.972656 8.8125 5.25 8.8125 C 4.527344 8.8125 3.9375 8.222656 3.9375 7.5 C 3.9375 6.777344 4.527344 6.1875 5.25 6.1875 C 5.972656 6.1875 6.5625 6.777344 6.5625 7.5 Z M 6.5625 7.5 "/>
</g>
</svg>
